<svg width="115" height="115" viewBox="0 0 115 115" fill="none" xmlns="http://www.w3.org/2000/svg">
<circle cx="57.5" cy="57.5" r="57.5" fill="#C9CBF2"/>
<path d="M77.1087 33C78.4122 33 79.5527 33.4406 80.5303 34.3218C81.5079 35.203 81.9967 36.3069 81.9967 37.6335C81.9967 38.8274 81.5777 40.2582 80.7398 41.9259C74.5577 53.846 70.2284 60.9715 67.7518 63.3025C65.9456 65.027 63.9159 65.8893 61.6628 65.8893C59.3166 65.8893 57.3009 65.0128 55.6157 63.2598C53.9306 61.5069 53.088 59.427 53.088 57.0203C53.088 54.5945 53.9445 52.5857 55.6576 50.9939L73.4777 34.535C74.5763 33.5117 75.7867 33 77.1087 33ZM51.7194 62.3928C52.4456 63.8331 53.4371 65.0649 54.694 66.0883C55.9509 67.1116 57.3521 67.8317 58.8976 68.2487L58.9256 70.2669C59.0001 74.3035 57.7944 77.5914 55.3085 80.1309C52.8226 82.6703 49.578 83.94 45.5745 83.94C43.2842 83.94 41.2545 83.4994 39.4855 82.6182C37.7166 81.737 36.2967 80.5288 35.226 78.9938C34.1553 77.4588 33.35 75.7248 32.81 73.7918C32.27 71.8588 32 69.7742 32 67.538C32.1303 67.6328 32.5121 67.917 33.1452 68.3908C33.7783 68.8646 34.3555 69.2862 34.8769 69.6558C35.3983 70.0253 35.9476 70.3712 36.5248 70.6933C37.1021 71.0155 37.5304 71.1766 37.8097 71.1766C38.5731 71.1766 39.0852 70.826 39.3459 70.1248C39.8114 68.874 40.3467 67.8081 40.9519 66.9268C41.5571 66.0456 42.2042 65.3255 42.8931 64.7664C43.5821 64.2074 44.4014 63.7573 45.3511 63.4162C46.3007 63.0751 47.2597 62.8334 48.228 62.6913C49.1962 62.5492 50.36 62.4497 51.7194 62.3928Z" fill="#282378"/>
</svg>
