<svg width="60" height="80" viewBox="0 0 60 80" fill="none" xmlns="http://www.w3.org/2000/svg">
<path d="M0.00221746 38.4406C0.227852 56.7153 11.4855 86.5375 55.6999 78.721C29.6531 78.721 16.6774 59.0972 16.6774 48.6448C16.6774 41.7434 20.9978 36.9668 29.3809 36.4346L29.3809 43.1495L31.0731 41.9555L58.0605 22.9418L60 21.5771L58.0604 20.2073L31.0733 1.19401L29.381 -4.67292e-06L29.381 9.83238C11.1463 10.4262 0.0974159 23.2068 0.00221742 37.5771C0.000115636 37.8611 -0.00149161 38.1502 0.00221746 38.4406ZM5.51548 39.2002C5.37738 25.0475 14.8706 15.0199 31.6913 14.604L31.6913 5.12313L55.043 21.5724L31.6911 38.027L31.6911 27.1761C14.3565 27.5602 6.73662 37.1428 9.40591 55.5825C6.82836 49.7662 5.56456 44.2222 5.51536 39.2003L5.51548 39.2002Z" fill="white"/>
</svg>
