<svg width="115" height="115" viewBox="0 0 115 115" fill="none" xmlns="http://www.w3.org/2000/svg">
<circle cx="57.5" cy="57.5" r="57.5" fill="#C9CBF2"/>
<path d="M69.6667 34H46.3333C45.4493 34 44.6014 34.3512 43.9763 34.9763C43.3512 35.6014 43 36.4493 43 37.3333V77.3333C43 78.2174 43.3512 79.0652 43.9763 79.6904C44.6014 80.3155 45.4493 80.6667 46.3333 80.6667H69.6667C70.5507 80.6667 71.3986 80.3155 72.0237 79.6904C72.6488 79.0652 73 78.2174 73 77.3333V37.3333C73 36.4493 72.6488 35.6014 72.0237 34.9763C71.3986 34.3512 70.5507 34 69.6667 34ZM59.6667 77.3333H56.3333V74H59.6667V77.3333ZM46.3333 70.6667V37.3333H69.6667V70.6667H46.3333Z" fill="#1B287E"/>
</svg>
